# WaveFront *.obj file (generated by Autodesk ATF)

mtllib d8a4814e-c71e-454e-a51c-0238331d4bc3.mtl

g Body15

v -25.000000 35.284764 950.000000
v -25.000000 36.988473 962.940952
v -25.000000 41.983494 975.000000
v -25.000000 49.929425 985.355339
v -25.000000 60.284764 993.301270
v -25.000000 72.343812 998.296291
v -25.000000 85.284764 1000.000000
v 175.000000 85.284764 1000.000000
v 175.000000 72.343812 998.296291
v 175.000000 60.284764 993.301270
v 175.000000 49.929425 985.355339
v 175.000000 41.983494 975.000000
v 175.000000 36.988473 962.940952
v 175.000000 35.284764 950.000000
v 175.000000 35.284764 822.453941
v -25.000000 35.284764 822.453941
v -25.000000 -85.284764 1000.000000
v -25.000000 -72.343812 998.296291
v -25.000000 -60.284764 993.301270
v -25.000000 -49.929425 985.355339
v -25.000000 -41.983494 975.000000
v -25.000000 -36.988473 962.940952
v -25.000000 -35.284764 950.000000
v 175.000000 -35.284764 950.000000
v 175.000000 -36.988473 962.940952
v 175.000000 -41.983494 975.000000
v 175.000000 -49.929425 985.355339
v 175.000000 -60.284764 993.301270
v 175.000000 -72.343812 998.296291
v 175.000000 -85.284764 1000.000000
v 175.000000 -220.000000 1000.000000
v -25.000000 -220.000000 1000.000000
v -25.000000 -35.284764 822.453941
v 175.000000 -35.284764 822.453941
v -25.000000 220.000000 1000.000000
v 175.000000 220.000000 1000.000000
v 175.000000 0.000000 800.000000
v 175.000000 220.000000 1080.000000
v 175.000000 -220.000000 1080.000000
v -25.000000 -220.000000 940.000000
v -25.000000 220.000000 940.000000
v -75.000000 -220.000000 1080.000000
v -75.000000 -220.000000 940.000000
v -75.000000 220.000000 1080.000000
v -75.000000 220.000000 940.000000
v -75.000000 0.000000 800.000000
vt 17.500000 3.926991 0.000000
vt -2.500000 3.926991 0.000000
vt 17.500000 2.617994 0.000000
vt -2.500000 2.617994 0.000000
vt 17.500000 1.308997 0.000000
vt -2.500000 1.308997 0.000000
vt 17.500000 0.000000 0.000000
vt -2.500000 0.000000 0.000000
vt 17.500000 -1.308997 0.000000
vt -2.500000 -1.308997 0.000000
vt 17.500000 -2.617994 0.000000
vt -2.500000 -2.617994 0.000000
vt 17.500000 -3.926991 0.000000
vt -2.500000 -3.926991 0.000000
vt 12.754606 17.500000 0.000000
vt 0.000000 17.500000 0.000000
vt 12.754606 -2.500000 0.000000
vt 0.000000 -2.500000 0.000000
vt 17.500000 3.926991 0.000000
vt -2.500000 3.926991 0.000000
vt 17.500000 2.617994 0.000000
vt -2.500000 2.617994 0.000000
vt 17.500000 1.308997 0.000000
vt -2.500000 1.308997 0.000000
vt 17.500000 0.000000 0.000000
vt -2.500000 0.000000 0.000000
vt 17.500000 -1.308997 0.000000
vt -2.500000 -1.308997 0.000000
vt 17.500000 -2.617994 0.000000
vt -2.500000 -2.617994 0.000000
vt 17.500000 -3.926991 0.000000
vt -2.500000 -3.926991 0.000000
vt 13.471524 17.500000 0.000000
vt 0.000000 17.500000 0.000000
vt 13.471524 -2.500000 0.000000
vt 0.000000 -2.500000 0.000000
vt 5.000000 -2.500000 0.000000
vt 17.754606 -2.500000 0.000000
vt 5.000000 17.500000 0.000000
vt 17.754606 17.500000 0.000000
vt 5.000000 -2.500000 0.000000
vt 18.471524 -2.500000 0.000000
vt 5.000000 17.500000 0.000000
vt 18.471524 17.500000 0.000000
vt 14.000000 0.000000 0.000000
vt 11.754606 3.528476 0.000000
vt 11.754606 -3.528476 0.000000
vt -1.000000 3.528476 0.000000
vt -1.000000 -3.528476 0.000000
vt -2.294095 -3.698847 0.000000
vt -2.294095 3.698847 0.000000
vt -3.500000 -4.198349 0.000000
vt -3.500000 4.198349 0.000000
vt -4.535534 -4.992943 0.000000
vt -4.535534 4.992943 0.000000
vt -5.330127 -6.028476 0.000000
vt -5.330127 6.028476 0.000000
vt -5.829629 7.234381 0.000000
vt -6.000000 8.528476 0.000000
vt -14.000000 22.000000 0.000000
vt -14.000000 -22.000000 0.000000
vt -5.829629 -7.234381 0.000000
vt -6.000000 -8.528476 0.000000
vt -6.000000 -22.000000 0.000000
vt -6.000000 22.000000 0.000000
vt -2.294095 -3.698847 0.000000
vt -6.000000 -8.528476 0.000000
vt -1.000000 -3.528476 0.000000
vt -0.000000 -22.000000 0.000000
vt 11.754606 -3.528476 0.000000
vt -3.500000 -4.198349 0.000000
vt -4.535534 -4.992943 0.000000
vt -5.330127 -6.028476 0.000000
vt -5.829629 -7.234381 0.000000
vt -6.000000 -22.000000 0.000000
vt -5.829629 7.234381 0.000000
vt -5.330127 6.028476 0.000000
vt -6.000000 8.528476 0.000000
vt -4.535534 4.992943 0.000000
vt -3.500000 4.198349 0.000000
vt -2.294095 3.698847 0.000000
vt -1.000000 3.528476 0.000000
vt -0.000000 22.000000 0.000000
vt 11.754606 3.528476 0.000000
vt -6.000000 22.000000 0.000000
vt 0.000000 2.500000 0.000000
vt 6.000000 2.500000 0.000000
vt 0.000000 7.500000 0.000000
vt 14.000000 7.500000 0.000000
vt 14.000000 -17.500000 0.000000
vt 6.000000 -17.500000 0.000000
vt 44.000000 7.500000 0.000000
vt 0.000000 7.500000 0.000000
vt 44.000000 -17.500000 0.000000
vt 0.000000 -17.500000 0.000000
vt 14.000000 2.500000 0.000000
vt 14.000000 7.500000 0.000000
vt 8.000000 2.500000 0.000000
vt 0.000000 7.500000 0.000000
vt 0.000000 -17.500000 0.000000
vt 8.000000 -17.500000 0.000000
vt 26.076810 2.500000 0.000000
vt 26.076810 7.500000 0.000000
vt 4.182337 2.500000 0.000000
vt 0.000000 7.500000 0.000000
vt 0.000000 -17.500000 0.000000
vt 4.182337 -17.500000 0.000000
vt -0.000000 2.500000 0.000000
vt 21.894473 2.500000 0.000000
vt -0.000000 7.500000 0.000000
vt 26.076810 7.500000 0.000000
vt 26.076810 -17.500000 0.000000
vt 21.894473 -17.500000 0.000000
vt 14.000000 22.000000 0.000000
vt 0.000000 22.000000 0.000000
vt 14.000000 -22.000000 0.000000
vt 0.000000 -22.000000 0.000000
vt -14.000000 0.000000 0.000000
vn 0.000000 0.100000 0.000000
vn 0.000000 0.100000 0.000000
vn 0.000000 0.096593 -0.025882
vn 0.000000 0.096593 -0.025882
vn 0.000000 0.086603 -0.050000
vn 0.000000 0.086603 -0.050000
vn 0.000000 0.070711 -0.070711
vn 0.000000 0.070711 -0.070711
vn 0.000000 0.050000 -0.086603
vn 0.000000 0.050000 -0.086603
vn 0.000000 0.025882 -0.096593
vn 0.000000 0.025882 -0.096593
vn 0.000000 0.000000 -0.100000
vn 0.000000 0.000000 -0.100000
vn 0.000000 0.100000 0.000000
vn 0.000000 0.100000 0.000000
vn 0.000000 0.000000 -0.100000
vn 0.000000 0.000000 -0.100000
vn 0.000000 -0.025882 -0.096593
vn 0.000000 -0.025882 -0.096593
vn 0.000000 -0.050000 -0.086603
vn 0.000000 -0.050000 -0.086603
vn 0.000000 -0.070711 -0.070711
vn 0.000000 -0.070711 -0.070711
vn 0.000000 -0.086603 -0.050000
vn 0.000000 -0.086603 -0.050000
vn 0.000000 -0.096593 -0.025882
vn 0.000000 -0.096593 -0.025882
vn 0.000000 -0.100000 0.000000
vn 0.000000 -0.100000 0.000000
vn 0.000000 0.000000 -0.100000
vn 0.000000 0.000000 -0.100000
vn 0.000000 -0.100000 -0.000000
vn 0.000000 -0.100000 -0.000000
vn 0.000000 0.000000 -0.100000
vn 0.000000 0.000000 -0.100000
vn 0.100000 0.000000 0.000000
vn 0.100000 0.000000 0.000000
vn 0.100000 0.000000 0.000000
vn 0.100000 0.000000 0.000000
vn 0.100000 0.000000 0.000000
vn 0.100000 0.000000 0.000000
vn 0.100000 0.000000 0.000000
vn 0.100000 0.000000 0.000000
vn 0.100000 0.000000 0.000000
vn 0.100000 0.000000 0.000000
vn 0.100000 0.000000 0.000000
vn 0.100000 0.000000 0.000000
vn 0.100000 0.000000 0.000000
vn 0.100000 0.000000 0.000000
vn 0.100000 0.000000 0.000000
vn 0.100000 0.000000 0.000000
vn 0.100000 0.000000 0.000000
vn 0.100000 0.000000 0.000000
vn 0.100000 0.000000 0.000000
vn 0.100000 0.000000 0.000000
vn 0.100000 0.000000 0.000000
vn 0.100000 0.000000 0.000000
vn 0.100000 0.000000 0.000000
vn 0.100000 0.000000 0.000000
vn 0.100000 0.000000 0.000000
vn 0.100000 0.000000 0.000000
vn 0.100000 0.000000 0.000000
vn 0.100000 0.000000 0.000000
vn 0.100000 0.000000 0.000000
vn 0.100000 0.000000 0.000000
vn 0.100000 0.000000 0.000000
vn 0.100000 0.000000 0.000000
vn 0.100000 0.000000 0.000000
vn 0.100000 0.000000 0.000000
vn 0.100000 0.000000 0.000000
vn 0.100000 0.000000 0.000000
vn 0.100000 0.000000 0.000000
vn 0.100000 0.000000 0.000000
vn 0.100000 0.000000 0.000000
vn 0.100000 0.000000 0.000000
vn 0.100000 0.000000 0.000000
vn 0.000000 -0.100000 0.000000
vn 0.000000 -0.100000 0.000000
vn 0.000000 -0.100000 0.000000
vn 0.000000 -0.100000 0.000000
vn 0.000000 -0.100000 0.000000
vn 0.000000 -0.100000 0.000000
vn 0.000000 -0.000000 0.100000
vn 0.000000 -0.000000 0.100000
vn 0.000000 -0.000000 0.100000
vn 0.000000 -0.000000 0.100000
vn 0.000000 0.100000 0.000000
vn 0.000000 0.100000 0.000000
vn 0.000000 0.100000 0.000000
vn 0.000000 0.100000 0.000000
vn 0.000000 0.100000 0.000000
vn 0.000000 0.100000 0.000000
vn 0.000000 -0.053688 -0.084366
vn 0.000000 -0.053688 -0.084366
vn 0.000000 -0.053688 -0.084366
vn 0.000000 -0.053688 -0.084366
vn 0.000000 -0.053688 -0.084366
vn 0.000000 -0.053688 -0.084366
vn 0.000000 0.053688 -0.084366
vn 0.000000 0.053688 -0.084366
vn 0.000000 0.053688 -0.084366
vn 0.000000 0.053688 -0.084366
vn 0.000000 0.053688 -0.084366
vn 0.000000 0.053688 -0.084366
vn -0.100000 0.000000 0.000000
vn -0.100000 0.000000 0.000000
vn -0.100000 0.000000 0.000000
vn -0.100000 0.000000 0.000000
vn -0.100000 0.000000 0.000000
usemtl Steel_-_Satin
f 14/1/1 1/2/2 13/3/3
f 13/3/3 1/2/2 2/4/4
f 13/3/3 2/4/4 12/5/5
f 12/5/5 2/4/4 3/6/6
f 12/5/5 3/6/6 11/7/7
f 11/7/7 3/6/6 4/8/8
f 11/7/7 4/8/8 10/9/9
f 10/9/9 4/8/8 5/10/10
f 10/9/9 5/10/10 9/11/11
f 9/11/11 5/10/10 6/12/12
f 9/11/11 6/12/12 8/13/13
f 8/13/13 6/12/12 7/14/14
f 14/15/1 15/16/15 1/17/2
f 1/17/2 15/16/15 16/18/16
f 30/19/17 17/20/18 29/21/19
f 29/21/19 17/20/18 18/22/20
f 29/21/19 18/22/20 28/23/21
f 28/23/21 18/22/20 19/24/22
f 28/23/21 19/24/22 27/25/23
f 27/25/23 19/24/22 20/26/24
f 27/25/23 20/26/24 26/27/25
f 26/27/25 20/26/24 21/28/26
f 26/27/25 21/28/26 25/29/27
f 25/29/27 21/28/26 22/30/28
f 25/29/27 22/30/28 24/31/29
f 24/31/29 22/30/28 23/32/30
f 30/33/17 31/34/31 17/35/18
f 17/35/18 31/34/31 32/36/32
f 23/37/30 33/38/33 24/39/29
f 24/39/29 33/38/33 34/40/34
f 7/41/14 35/42/35 8/43/13
f 8/43/13 35/42/35 36/44/36
f 37/45/37 15/46/38 34/47/39
f 34/47/39 15/46/38 14/48/40
f 34/47/39 14/48/40 24/49/41
f 24/49/41 14/48/40 25/50/42
f 25/50/42 14/48/40 13/51/43
f 25/50/42 13/51/43 26/52/44
f 26/52/44 13/51/43 12/53/45
f 26/52/44 12/53/45 27/54/46
f 27/54/46 12/53/45 11/55/47
f 27/54/46 11/55/47 28/56/48
f 28/56/48 11/55/47 10/57/49
f 28/56/48 10/57/49 9/58/50
f 8/59/51 38/60/52 9/58/50
f 9/58/50 38/60/52 39/61/53
f 9/58/50 39/61/53 29/62/54
f 29/62/54 39/61/53 30/63/55
f 30/63/55 39/61/53 31/64/56
f 8/59/51 36/65/57 38/60/52
f 29/62/54 28/56/48 9/58/50
f 22/66/58 17/67/59 23/68/60
f 23/68/60 17/67/59 40/69/61
f 23/68/60 40/69/61 33/70/62
f 22/66/58 21/71/63 17/67/59
f 17/67/59 21/71/63 20/72/64
f 17/67/59 20/72/64 19/73/65
f 19/73/65 18/74/66 17/67/59
f 17/67/59 32/75/67 40/69/61
f 6/76/68 5/77/69 7/78/70
f 7/78/70 5/77/69 4/79/71
f 7/78/70 4/79/71 3/80/72
f 3/80/72 2/81/73 7/78/70
f 7/78/70 2/81/73 1/82/74
f 7/78/70 1/82/74 41/83/75
f 41/83/75 1/82/74 16/84/76
f 41/83/75 35/85/77 7/78/70
f 40/86/78 32/87/79 43/88/80
f 43/88/80 32/87/79 42/89/81
f 42/89/81 32/87/79 39/90/82
f 39/90/82 32/87/79 31/91/83
f 44/92/84 42/93/85 38/94/86
f 38/94/86 42/93/85 39/95/87
f 41/96/88 45/97/89 35/98/90
f 35/98/90 45/97/89 44/99/91
f 35/98/90 44/99/91 38/100/92
f 38/100/92 36/101/93 35/98/90
f 40/102/94 43/103/95 33/104/96
f 33/104/96 43/103/95 46/105/97
f 33/104/96 46/105/97 37/106/98
f 37/106/98 34/107/99 33/104/96
f 41/108/100 16/109/101 45/110/102
f 45/110/102 16/109/101 46/111/103
f 46/111/103 16/109/101 37/112/104
f 37/112/104 16/109/101 15/113/105
f 44/114/106 45/115/107 42/116/108
f 42/116/108 45/115/107 43/117/109
f 43/117/109 45/115/107 46/118/110
# 46 vertices
# 118 texture params
# 110 normals
# 88 facets

# 1 groups
