# WaveFront *.obj file (generated by Autodesk ATF)

mtllib 5b641d3b-765a-4e64-88b1-15fb4c8edfca.mtl

g Body7

v 100.000000 -95.000000 850.000000
v 108.682409 -95.759612 850.000000
v 117.101007 -98.015369 850.000000
v 125.000000 -101.698730 850.000000
v 132.139380 -106.697778 850.000000
v 138.302222 -112.860620 850.000000
v 143.301270 -120.000000 850.000000
v 146.984631 -127.898993 850.000000
v 149.240388 -136.317591 850.000000
v 150.000000 -145.000000 850.000000
v 150.000000 -145.000000 750.392733
v 149.240388 -136.317591 750.392733
v 146.984631 -127.898993 750.392733
v 143.301270 -120.000000 750.392733
v 138.302222 -112.860620 750.392733
v 132.139380 -106.697778 750.392733
v 125.000000 -101.698730 750.392733
v 117.101007 -98.015369 750.392733
v 108.682409 -95.759612 750.392733
v 100.000000 -95.000000 750.392733
v 50.000000 -95.000000 850.000000
v 41.317591 -95.759612 850.000000
v 32.898993 -98.015369 850.000000
v 25.000000 -101.698730 850.000000
v 17.860620 -106.697778 850.000000
v 11.697778 -112.860620 850.000000
v 6.698730 -120.000000 850.000000
v 3.015369 -127.898993 850.000000
v 0.759612 -136.317591 850.000000
v 0.000000 -145.000000 850.000000
v 0.000000 -195.000000 850.000000
v 150.000000 -195.000000 850.000000
v 50.000000 -95.000000 750.392733
v 41.317591 -95.759612 750.392733
v 32.898993 -98.015369 750.392733
v 25.000000 -101.698730 750.392733
v 17.860620 -106.697778 750.392733
v 11.697778 -112.860620 750.392733
v 6.698730 -120.000000 750.392733
v 3.015369 -127.898993 750.392733
v 0.759612 -136.317591 750.392733
v 0.000000 -145.000000 750.392733
v 0.000000 -195.000000 750.392733
v 150.000000 -195.000000 750.392733
vt 2.490182 3.926991 0.000000
vt -7.470545 3.926991 0.000000
vt 2.490182 3.054326 0.000000
vt -7.470545 3.054326 0.000000
vt 2.490182 2.181662 0.000000
vt -7.470545 2.181662 0.000000
vt 2.490182 1.308997 0.000000
vt -7.470545 1.308997 0.000000
vt 2.490182 0.436332 0.000000
vt -7.470545 0.436332 0.000000
vt 2.490182 -0.436332 0.000000
vt -7.470545 -0.436332 0.000000
vt 2.490182 -1.308997 0.000000
vt -7.470545 -1.308997 0.000000
vt 2.490182 -2.181662 0.000000
vt -7.470545 -2.181662 0.000000
vt 2.490182 -3.054326 0.000000
vt -7.470545 -3.054326 0.000000
vt 2.490182 -3.926991 0.000000
vt -7.470545 -3.926991 0.000000
vt 4.131759 14.924039 0.000000
vt 4.131759 0.075961 0.000000
vt 5.000000 15.000000 0.000000
vt 5.000000 0.000000 0.000000
vt 10.000000 0.000000 0.000000
vt 3.289899 14.698463 0.000000
vt 0.000000 10.000000 0.000000
vt 0.000000 5.000000 0.000000
vt 3.289899 0.301537 0.000000
vt 2.500000 0.669873 0.000000
vt 1.786062 1.169778 0.000000
vt 1.169778 1.786062 0.000000
vt 0.669873 2.500000 0.000000
vt 0.301537 3.289899 0.000000
vt 0.075961 4.131759 0.000000
vt 2.500000 14.330127 0.000000
vt 1.786062 13.830222 0.000000
vt 1.169778 13.213938 0.000000
vt 0.669873 12.500000 0.000000
vt 0.301537 11.710101 0.000000
vt 0.075961 10.868241 0.000000
vt 10.000000 15.000000 0.000000
vt 9.960727 10.000000 0.000000
vt 0.000000 10.000000 0.000000
vt 9.960727 5.000000 0.000000
vt 0.000000 5.000000 0.000000
vt 2.490182 3.926991 0.000000
vt -7.470545 3.926991 0.000000
vt 2.490182 3.054326 0.000000
vt -7.470545 3.054326 0.000000
vt 2.490182 2.181662 0.000000
vt -7.470545 2.181662 0.000000
vt 2.490182 1.308997 0.000000
vt -7.470545 1.308997 0.000000
vt 2.490182 0.436332 0.000000
vt -7.470545 0.436332 0.000000
vt 2.490182 -0.436332 0.000000
vt -7.470545 -0.436332 0.000000
vt 2.490182 -1.308997 0.000000
vt -7.470545 -1.308997 0.000000
vt 2.490182 -2.181662 0.000000
vt -7.470545 -2.181662 0.000000
vt 2.490182 -3.054326 0.000000
vt -7.470545 -3.054326 0.000000
vt 2.490182 -3.926991 0.000000
vt -7.470545 -3.926991 0.000000
vt 0.000000 0.000000 0.000000
vt 9.960727 0.000000 0.000000
vt 0.000000 15.000000 0.000000
vt 9.960727 15.000000 0.000000
vt 9.924039 10.868241 0.000000
vt 9.698463 11.710101 0.000000
vt 10.000000 10.000000 0.000000
vt 9.330127 12.500000 0.000000
vt 8.830222 13.213938 0.000000
vt 8.213938 13.830222 0.000000
vt 7.500000 14.330127 0.000000
vt 6.710101 14.698463 0.000000
vt 5.868241 14.924039 0.000000
vt 10.000000 5.000000 0.000000
vt 5.868241 0.075961 0.000000
vt 6.710101 0.301537 0.000000
vt 5.000000 15.000000 0.000000
vt 5.000000 0.000000 0.000000
vt 0.000000 0.000000 0.000000
vt 0.000000 15.000000 0.000000
vt 7.500000 0.669873 0.000000
vt 8.213938 1.169778 0.000000
vt 8.830222 1.786062 0.000000
vt 9.330127 2.500000 0.000000
vt 9.698463 3.289899 0.000000
vt 9.924039 4.131759 0.000000
vt 4.980363 0.000000 0.000000
vt -4.980363 0.000000 0.000000
vt 4.980363 -5.000000 0.000000
vt -4.980363 -5.000000 0.000000
vt -0.000000 -4.980363 0.000000
vt 5.000000 -4.980363 0.000000
vt -0.000000 4.980363 0.000000
vt 5.000000 4.980363 0.000000
vn -0.000000 0.100000 -0.000000
vn -0.000000 0.100000 -0.000000
vn 0.017365 0.098481 0.000000
vn 0.017365 0.098481 0.000000
vn 0.034202 0.093969 0.000000
vn 0.034202 0.093969 0.000000
vn 0.050000 0.086603 0.000000
vn 0.050000 0.086603 0.000000
vn 0.064279 0.076604 0.000000
vn 0.064279 0.076604 0.000000
vn 0.076604 0.064279 0.000000
vn 0.076604 0.064279 0.000000
vn 0.086603 0.050000 0.000000
vn 0.086603 0.050000 0.000000
vn 0.093969 0.034202 0.000000
vn 0.093969 0.034202 0.000000
vn 0.098481 0.017365 0.000000
vn 0.098481 0.017365 0.000000
vn 0.100000 0.000000 0.000000
vn 0.100000 0.000000 0.000000
vn 0.000000 0.000000 0.100000
vn 0.000000 0.000000 0.100000
vn 0.000000 0.000000 0.100000
vn 0.000000 0.000000 0.100000
vn 0.000000 0.000000 0.100000
vn 0.000000 0.000000 0.100000
vn 0.000000 0.000000 0.100000
vn 0.000000 0.000000 0.100000
vn 0.000000 0.000000 0.100000
vn 0.000000 0.000000 0.100000
vn 0.000000 0.000000 0.100000
vn 0.000000 0.000000 0.100000
vn 0.000000 0.000000 0.100000
vn 0.000000 0.000000 0.100000
vn 0.000000 0.000000 0.100000
vn 0.000000 0.000000 0.100000
vn 0.000000 0.000000 0.100000
vn 0.000000 0.000000 0.100000
vn 0.000000 0.000000 0.100000
vn 0.000000 0.000000 0.100000
vn 0.000000 0.000000 0.100000
vn 0.000000 0.000000 0.100000
vn 0.000000 0.100000 0.000000
vn 0.000000 0.100000 0.000000
vn -0.100000 0.000000 0.000000
vn -0.100000 0.000000 0.000000
vn -0.098481 0.017365 -0.000000
vn -0.098481 0.017365 -0.000000
vn -0.093969 0.034202 -0.000000
vn -0.093969 0.034202 -0.000000
vn -0.086603 0.050000 -0.000000
vn -0.086603 0.050000 -0.000000
vn -0.076604 0.064279 -0.000000
vn -0.076604 0.064279 -0.000000
vn -0.064279 0.076604 -0.000000
vn -0.064279 0.076604 -0.000000
vn -0.050000 0.086603 -0.000000
vn -0.050000 0.086603 -0.000000
vn -0.034202 0.093969 -0.000000
vn -0.034202 0.093969 -0.000000
vn -0.017365 0.098481 -0.000000
vn -0.017365 0.098481 -0.000000
vn 0.000000 -0.100000 0.000000
vn 0.000000 -0.100000 0.000000
vn 0.000000 -0.100000 0.000000
vn 0.000000 -0.100000 0.000000
vn 0.000000 0.000000 -0.100000
vn 0.000000 0.000000 -0.100000
vn 0.000000 0.000000 -0.100000
vn 0.000000 0.000000 -0.100000
vn 0.000000 0.000000 -0.100000
vn 0.000000 0.000000 -0.100000
vn 0.000000 0.000000 -0.100000
vn 0.000000 0.000000 -0.100000
vn 0.000000 0.000000 -0.100000
vn 0.000000 0.000000 -0.100000
vn 0.000000 0.000000 -0.100000
vn 0.000000 0.000000 -0.100000
vn 0.000000 0.000000 -0.100000
vn 0.000000 0.000000 -0.100000
vn 0.000000 0.000000 -0.100000
vn 0.000000 0.000000 -0.100000
vn 0.000000 0.000000 -0.100000
vn 0.000000 0.000000 -0.100000
vn 0.000000 0.000000 -0.100000
vn 0.000000 0.000000 -0.100000
vn 0.000000 0.000000 -0.100000
vn 0.000000 0.000000 -0.100000
vn 0.100000 0.000000 0.000000
vn 0.100000 0.000000 0.000000
vn -0.100000 0.000000 0.000000
vn -0.100000 0.000000 0.000000
usemtl Steel_-_Satin
f 20/1/1 1/2/2 19/3/3
f 19/3/3 1/2/2 2/4/4
f 19/3/3 2/4/4 18/5/5
f 18/5/5 2/4/4 3/6/6
f 18/5/5 3/6/6 17/7/7
f 17/7/7 3/6/6 4/8/8
f 17/7/7 4/8/8 16/9/9
f 16/9/9 4/8/8 5/10/10
f 16/9/9 5/10/10 15/11/11
f 15/11/11 5/10/10 6/12/12
f 15/11/11 6/12/12 14/13/13
f 14/13/13 6/12/12 7/14/14
f 14/13/13 7/14/14 13/15/15
f 13/15/15 7/14/14 8/16/16
f 13/15/15 8/16/16 12/17/17
f 12/17/17 8/16/16 9/18/18
f 12/17/17 9/18/18 11/19/19
f 11/19/19 9/18/18 10/20/20
f 9/21/21 29/22/22 10/23/23
f 10/23/23 29/22/22 30/24/24
f 10/23/23 30/24/24 31/25/25
f 8/26/26 1/27/27 9/21/21
f 9/21/21 1/27/27 21/28/28
f 9/21/21 21/28/28 29/22/22
f 29/22/22 21/28/28 28/29/29
f 28/29/29 21/28/28 27/30/30
f 27/30/30 21/28/28 26/31/31
f 26/31/31 21/28/28 25/32/32
f 25/32/32 21/28/28 24/33/33
f 24/33/33 21/28/28 23/34/34
f 23/34/34 21/28/28 22/35/35
f 8/26/26 7/36/36 1/27/27
f 1/27/27 7/36/36 6/37/37
f 1/27/27 6/37/37 5/38/38
f 5/38/38 4/39/39 1/27/27
f 1/27/27 4/39/39 3/40/40
f 1/27/27 3/40/40 2/41/41
f 31/25/25 32/42/42 10/23/23
f 1/43/2 20/44/1 21/45/43
f 21/45/43 20/44/1 33/46/44
f 42/47/45 30/48/46 41/49/47
f 41/49/47 30/48/46 29/50/48
f 41/49/47 29/50/48 40/51/49
f 40/51/49 29/50/48 28/52/50
f 40/51/49 28/52/50 39/53/51
f 39/53/51 28/52/50 27/54/52
f 39/53/51 27/54/52 38/55/53
f 38/55/53 27/54/52 26/56/54
f 38/55/53 26/56/54 37/57/55
f 37/57/55 26/56/54 25/58/56
f 37/57/55 25/58/56 36/59/57
f 36/59/57 25/58/56 24/60/58
f 36/59/57 24/60/58 35/61/59
f 35/61/59 24/60/58 23/62/60
f 35/61/59 23/62/60 34/63/61
f 34/63/61 23/62/60 22/64/62
f 34/63/61 22/64/62 33/65/44
f 33/65/44 22/64/62 21/66/43
f 31/67/63 43/68/64 32/69/65
f 32/69/65 43/68/64 44/70/66
f 19/71/67 18/72/68 20/73/69
f 20/73/69 18/72/68 17/74/70
f 20/73/69 17/74/70 16/75/71
f 16/75/71 15/76/72 20/73/69
f 20/73/69 15/76/72 14/77/73
f 20/73/69 14/77/73 13/78/74
f 13/78/74 12/79/75 20/73/69
f 20/73/69 12/79/75 33/80/76
f 33/80/76 12/79/75 41/81/77
f 33/80/76 41/81/77 40/82/78
f 12/79/75 11/83/79 41/81/77
f 41/81/77 11/83/79 42/84/80
f 42/84/80 11/83/79 43/85/81
f 43/85/81 11/83/79 44/86/82
f 40/82/78 39/87/83 33/80/76
f 33/80/76 39/87/83 38/88/84
f 33/80/76 38/88/84 37/89/85
f 37/89/85 36/90/86 33/80/76
f 33/80/76 36/90/86 35/91/87
f 33/80/76 35/91/87 34/92/88
f 11/93/19 10/94/20 44/95/89
f 44/95/89 10/94/20 32/96/90
f 42/97/45 43/98/91 30/99/46
f 30/99/46 43/98/91 31/100/92
# 44 vertices
# 100 texture params
# 92 normals
# 84 facets

# 1 groups
