# WaveFront *.obj file (generated by Autodesk ATF)

mtllib 12d3862d-5abb-4bed-8035-b04db4c6c59f.mtl

g Body12

v -60.773402 -316.602540 50.000000
v -52.628628 -316.781486 49.332167
v -44.701428 -317.313542 47.346506
v -37.203565 -318.184495 44.096063
v -30.335330 -319.371081 39.667667
v -24.280198 -320.841600 34.179615
v -19.199921 -322.556770 27.778512
v -15.230210 -324.470774 20.635351
v -12.477110 -326.532482 12.940952
v -12.477110 -203.467518 12.940952
v -15.230210 -205.529226 20.635351
v -19.199921 -207.443230 27.778512
v -24.280198 -209.158400 34.179615
v -30.335330 -210.628919 39.667667
v -37.203565 -211.815505 44.096063
v -44.701428 -212.686458 47.346506
v -52.628628 -213.218514 49.332167
v -60.773402 -213.397460 50.000000
v -145.612133 -213.397460 50.000000
v -145.612133 -316.602540 50.000000
v -9.009593 -200.000000 0.000000
v -132.945085 -200.000000 0.000000
v -138.121466 -200.182603 0.681483
v -142.945085 -200.717968 2.679492
v -147.087221 -201.569610 5.857864
v -150.265593 -202.679492 10.000000
v -152.263602 -203.971977 14.823619
v -152.945085 -205.358984 20.000000
v -152.263602 -206.745991 25.176381
v -132.945085 -330.000000 0.000000
v -138.121466 -329.817397 0.681483
v -142.945085 -329.282032 2.679492
v -147.087221 -328.430390 5.857864
v -150.265593 -327.320508 10.000000
v -152.263602 -326.028023 14.823619
v -152.945085 -324.641016 20.000000
v -152.263602 -323.254009 25.176381
v -9.009593 -330.000000 0.000000
vt 1.910254 3.272492 0.000000
vt -8.410254 3.272492 0.000000
vt 1.928149 2.454369 0.000000
vt -8.428149 2.454369 0.000000
vt 1.981354 1.636246 0.000000
vt -8.481354 1.636246 0.000000
vt 2.068450 0.818123 0.000000
vt -8.568450 0.818123 0.000000
vt 2.187108 -0.000000 0.000000
vt -8.687108 0.000000 0.000000
vt 2.334160 -0.818123 0.000000
vt -8.834160 -0.818123 0.000000
vt 2.505677 -1.636246 0.000000
vt -9.005677 -1.636246 0.000000
vt 2.697077 -2.454369 0.000000
vt -9.197077 -2.454369 0.000000
vt 2.903248 -3.272492 0.000000
vt -9.403248 -3.272492 0.000000
vt 2.323619 5.160254 0.000000
vt -6.160254 5.160254 0.000000
vt 2.323619 -5.160254 0.000000
vt -6.160254 -5.160254 0.000000
vt -10.638096 5.107242 0.000000
vt -11.430816 4.901671 0.000000
vt -9.823619 5.176381 0.000000
vt -12.180603 4.565160 0.000000
vt -12.867426 4.106699 0.000000
vt -0.674599 2.606451 0.000000
vt -13.472939 3.538534 0.000000
vt -13.980967 2.875843 0.000000
vt -0.606451 2.070552 0.000000
vt -14.377938 2.136329 0.000000
vt -0.674599 1.534654 0.000000
vt -2.606451 0.000000 0.000000
vt -0.874400 1.035276 0.000000
vt -1.192237 0.606451 0.000000
vt -1.606451 0.277401 0.000000
vt -2.088813 0.070552 0.000000
vt -14.653248 1.339746 0.000000
vt -15.000000 0.000000 0.000000
vt -1.339746 5.176381 0.000000
vt 9.750000 1.832596 0.000000
vt -3.250000 1.832596 0.000000
vt 9.731740 1.308997 0.000000
vt -3.231740 1.308997 0.000000
vt 9.678203 0.785398 0.000000
vt -3.178203 0.785398 0.000000
vt 9.593039 0.261799 0.000000
vt -3.093039 0.261799 0.000000
vt 9.482051 -0.261799 0.000000
vt -2.982051 -0.261799 0.000000
vt 9.352802 -0.785398 0.000000
vt -2.852802 -0.785398 0.000000
vt 9.214102 -1.308997 0.000000
vt -2.714102 -1.308997 0.000000
vt 9.075401 -1.832596 0.000000
vt -2.575401 -1.832596 0.000000
vt -12.325401 2.606451 0.000000
vt -0.674599 2.606451 0.000000
vt -11.660254 5.176381 0.000000
vt -1.339746 5.176381 0.000000
vt 0.000000 0.000000 0.000000
vt -0.346752 1.339746 0.000000
vt -12.393549 0.000000 0.000000
vt -0.622062 2.136329 0.000000
vt -14.325401 1.534654 0.000000
vt -14.393549 2.070552 0.000000
vt -1.019033 2.875843 0.000000
vt -14.325401 2.606451 0.000000
vt -1.527061 3.538534 0.000000
vt -2.132574 4.106699 0.000000
vt -5.176381 5.176381 0.000000
vt -2.819397 4.565160 0.000000
vt -3.569184 4.901671 0.000000
vt -4.361904 5.107242 0.000000
vt -13.660254 5.176381 0.000000
vt -14.125600 1.035276 0.000000
vt -13.807763 0.606451 0.000000
vt -13.393549 0.277401 0.000000
vt -12.911187 0.070552 0.000000
vt -0.346752 1.339746 0.000000
vt -12.653248 1.339746 0.000000
vt 0.000000 0.000000 0.000000
vt -13.000000 0.000000 0.000000
vt 4.893549 6.500000 0.000000
vt -7.500000 6.500000 0.000000
vt 4.893549 -6.500000 0.000000
vt -7.500000 -6.500000 0.000000
vn -0.000000 -0.000000 0.100000
vn 0.000000 0.000000 0.100000
vn 0.016290 0.000000 0.098664
vn 0.016290 0.000000 0.098664
vn 0.032144 0.000000 0.094693
vn 0.032144 0.000000 0.094693
vn 0.047140 0.000000 0.088192
vn 0.047140 0.000000 0.088192
vn 0.060876 0.000000 0.079335
vn 0.060876 0.000000 0.079335
vn 0.072986 0.000000 0.068359
vn 0.072986 0.000000 0.068359
vn 0.083147 0.000000 0.055557
vn 0.083147 0.000000 0.055557
vn 0.091086 0.000000 0.041271
vn 0.091086 0.000000 0.041271
vn 0.096593 0.000000 0.025882
vn 0.096593 0.000000 0.025882
vn 0.000000 0.000000 0.100000
vn 0.000000 0.000000 0.100000
vn 0.000000 0.096593 0.025882
vn 0.000000 0.096593 0.025882
vn 0.000000 0.096593 0.025882
vn 0.000000 0.096593 0.025882
vn 0.000000 0.096593 0.025882
vn 0.000000 0.096593 0.025882
vn 0.000000 0.096593 0.025882
vn 0.000000 0.096593 0.025882
vn 0.000000 0.096593 0.025882
vn 0.000000 0.096593 0.025882
vn 0.000000 0.096593 0.025882
vn 0.000000 0.096593 0.025882
vn 0.000000 0.096593 0.025882
vn 0.000000 0.096593 0.025882
vn 0.000000 0.096593 0.025882
vn 0.000000 0.096593 0.025882
vn 0.000000 0.096593 0.025882
vn 0.000000 0.096593 0.025882
vn 0.000000 0.096593 0.025882
vn -0.000000 0.000000 -0.100000
vn -0.000000 0.000000 -0.100000
vn -0.025882 0.000000 -0.096593
vn -0.025882 0.000000 -0.096593
vn -0.050000 0.000000 -0.086603
vn -0.050000 0.000000 -0.086603
vn -0.070711 0.000000 -0.070711
vn -0.070711 0.000000 -0.070711
vn -0.086603 0.000000 -0.050000
vn -0.086603 0.000000 -0.050000
vn -0.096593 0.000000 -0.025882
vn -0.096593 0.000000 -0.025882
vn -0.100000 0.000000 -0.000000
vn -0.100000 0.000000 -0.000000
vn -0.096593 0.000000 0.025882
vn -0.096593 0.000000 0.025882
vn -0.096593 0.000000 0.025882
vn -0.096593 0.000000 0.025882
vn 0.000000 -0.096593 0.025882
vn 0.000000 -0.096593 0.025882
vn 0.000000 -0.096593 0.025882
vn 0.000000 -0.096593 0.025882
vn 0.000000 -0.096593 0.025882
vn 0.000000 -0.096593 0.025882
vn 0.000000 -0.096593 0.025882
vn 0.000000 -0.096593 0.025882
vn 0.000000 -0.096593 0.025882
vn 0.000000 -0.096593 0.025882
vn 0.000000 -0.096593 0.025882
vn 0.000000 -0.096593 0.025882
vn 0.000000 -0.096593 0.025882
vn 0.000000 -0.096593 0.025882
vn 0.000000 -0.096593 0.025882
vn 0.000000 -0.096593 0.025882
vn 0.000000 -0.096593 0.025882
vn 0.000000 -0.096593 0.025882
vn 0.000000 -0.096593 0.025882
vn 0.096593 0.000000 0.025882
vn 0.096593 0.000000 0.025882
vn 0.000000 0.000000 -0.100000
vn 0.000000 0.000000 -0.100000
usemtl Steel_-_Satin
f 18/1/1 1/2/2 17/3/3
f 17/3/3 1/2/2 2/4/4
f 17/3/3 2/4/4 16/5/5
f 16/5/5 2/4/4 3/6/6
f 16/5/5 3/6/6 15/7/7
f 15/7/7 3/6/6 4/8/8
f 15/7/7 4/8/8 14/9/9
f 14/9/9 4/8/8 5/10/10
f 14/9/9 5/10/10 13/11/11
f 13/11/11 5/10/10 6/12/12
f 13/11/11 6/12/12 12/13/13
f 12/13/13 6/12/12 7/14/14
f 12/13/13 7/14/14 11/15/15
f 11/15/15 7/14/14 8/16/16
f 11/15/15 8/16/16 10/17/17
f 10/17/17 8/16/16 9/18/18
f 18/19/1 19/20/19 1/21/2
f 1/21/2 19/20/19 20/22/20
f 17/23/21 16/24/22 18/25/23
f 18/25/23 16/24/22 15/26/24
f 18/25/23 15/26/24 14/27/25
f 18/25/23 14/27/25 29/28/26
f 29/28/26 14/27/25 13/29/27
f 29/28/26 13/29/27 12/30/28
f 29/28/26 12/30/28 28/31/29
f 28/31/29 12/30/28 11/32/30
f 28/31/29 11/32/30 27/33/31
f 27/33/31 11/32/30 22/34/32
f 27/33/31 22/34/32 26/35/33
f 26/35/33 22/34/32 25/36/34
f 25/36/34 22/34/32 24/37/35
f 24/37/35 22/34/32 23/38/36
f 11/32/30 10/39/37 22/34/32
f 22/34/32 10/39/37 21/40/38
f 29/28/26 19/41/39 18/25/23
f 22/42/40 30/43/41 23/44/42
f 23/44/42 30/43/41 31/45/43
f 23/44/42 31/45/43 24/46/44
f 24/46/44 31/45/43 32/47/45
f 24/46/44 32/47/45 25/48/46
f 25/48/46 32/47/45 33/49/47
f 25/48/46 33/49/47 26/50/48
f 26/50/48 33/49/47 34/51/49
f 26/50/48 34/51/49 27/52/50
f 27/52/50 34/51/49 35/53/51
f 27/52/50 35/53/51 28/54/52
f 28/54/52 35/53/51 36/55/53
f 28/54/52 36/55/53 29/56/54
f 29/56/54 36/55/53 37/57/55
f 29/58/54 37/59/55 19/60/56
f 19/60/56 37/59/55 20/61/57
f 38/62/58 9/63/59 30/64/60
f 30/64/60 9/63/59 8/65/61
f 30/64/60 8/65/61 35/66/62
f 35/66/62 8/65/61 36/67/63
f 36/67/63 8/65/61 7/68/64
f 36/67/63 7/68/64 37/69/65
f 37/69/65 7/68/64 6/70/66
f 37/69/65 6/70/66 5/71/67
f 37/69/65 5/71/67 1/72/68
f 1/72/68 5/71/67 4/73/69
f 1/72/68 4/73/69 3/74/70
f 3/74/70 2/75/71 1/72/68
f 1/72/68 20/76/72 37/69/65
f 35/66/62 34/77/73 30/64/60
f 30/64/60 34/77/73 33/78/74
f 30/64/60 33/78/74 32/79/75
f 32/79/75 31/80/76 30/64/60
f 10/81/17 9/82/18 21/83/77
f 21/83/77 9/82/18 38/84/78
f 22/85/40 21/86/79 30/87/41
f 30/87/41 21/86/79 38/88/80
# 38 vertices
# 88 texture params
# 80 normals
# 72 facets

# 1 groups
