# WaveFront *.obj file (generated by Autodesk ATF)

mtllib 44c2579c-62ea-4add-9594-2728c1770dc1.mtl

g Body9

v 0.000000 -215.000000 125.000000
v 1.253604 -215.000000 113.873953
v 4.951557 -215.000000 103.305813
v 10.908426 -215.000000 93.825510
v 18.825510 -215.000000 85.908426
v 28.305813 -215.000000 79.951557
v 38.873953 -215.000000 76.253604
v 50.000000 -215.000000 75.000000
v 50.000000 -315.000000 75.000000
v 38.873953 -315.000000 76.253604
v 28.305813 -315.000000 79.951557
v 18.825510 -315.000000 85.908426
v 10.908426 -315.000000 93.825510
v 4.951557 -315.000000 103.305813
v 1.253604 -315.000000 113.873953
v 0.000000 -315.000000 125.000000
v 100.000000 -315.000000 75.000000
v 111.126047 -315.000000 76.253604
v 121.694187 -315.000000 79.951557
v 131.174490 -315.000000 85.908426
v 139.091574 -315.000000 93.825510
v 145.048443 -315.000000 103.305813
v 148.746396 -315.000000 113.873953
v 150.000000 -315.000000 125.000000
v 150.000000 -315.000000 400.000000
v 148.746396 -315.000000 411.126047
v 145.048443 -315.000000 421.694187
v 139.091574 -315.000000 431.174490
v 131.174490 -315.000000 439.091574
v 121.694187 -315.000000 445.048443
v 111.126047 -315.000000 448.746396
v 100.000000 -315.000000 450.000000
v 50.000000 -315.000000 450.000000
v 38.873953 -315.000000 448.746396
v 28.305813 -315.000000 445.048443
v 18.825510 -315.000000 439.091574
v 10.908426 -315.000000 431.174490
v 4.951557 -315.000000 421.694187
v 1.253604 -315.000000 411.126047
v 0.000000 -315.000000 400.000000
v 100.000000 -215.000000 75.000000
v 111.126047 -215.000000 76.253604
v 121.694187 -215.000000 79.951557
v 131.174490 -215.000000 85.908426
v 139.091574 -215.000000 93.825510
v 145.048443 -215.000000 103.305813
v 148.746396 -215.000000 113.873953
v 150.000000 -215.000000 125.000000
v 50.000000 -215.000000 450.000000
v 38.873953 -215.000000 448.746396
v 28.305813 -215.000000 445.048443
v 18.825510 -215.000000 439.091574
v 10.908426 -215.000000 431.174490
v 4.951557 -215.000000 421.694187
v 1.253604 -215.000000 411.126047
v 0.000000 -215.000000 400.000000
v 100.000000 -215.000000 450.000000
v 150.000000 -215.000000 400.000000
v 148.746396 -215.000000 411.126047
v 145.048443 -215.000000 421.694187
v 139.091574 -215.000000 431.174490
v 131.174490 -215.000000 439.091574
v 121.694187 -215.000000 445.048443
v 111.126047 -215.000000 448.746396
vt 2.500000 3.926991 0.000000
vt -7.500000 3.926991 0.000000
vt 2.500000 2.804993 0.000000
vt -7.500000 2.804993 0.000000
vt -7.500000 1.682996 0.000000
vt 2.500000 1.682996 0.000000
vt -7.500000 0.560999 0.000000
vt 2.500000 0.560999 0.000000
vt -7.500000 -0.560999 0.000000
vt 2.500000 -0.560999 0.000000
vt -7.500000 -1.682996 0.000000
vt 2.500000 -1.682996 0.000000
vt -7.500000 -2.804993 0.000000
vt 2.500000 -2.804993 0.000000
vt 2.500000 -3.926991 0.000000
vt -7.500000 -3.926991 0.000000
vt 33.612605 0.125360 0.000000
vt 34.669419 0.495156 0.000000
vt 32.500000 0.000000 0.000000
vt 35.617449 1.090843 0.000000
vt 36.409157 1.882551 0.000000
vt 37.004844 2.830581 0.000000
vt 37.374640 3.887395 0.000000
vt 37.500000 5.000000 0.000000
vt 37.500000 10.000000 0.000000
vt 0.000000 10.000000 0.000000
vt 0.000000 5.000000 0.000000
vt 5.000000 0.000000 0.000000
vt 0.125360 3.887395 0.000000
vt 0.495156 2.830581 0.000000
vt 37.374640 11.112605 0.000000
vt 32.500000 15.000000 0.000000
vt 5.000000 15.000000 0.000000
vt 0.125360 11.112605 0.000000
vt 0.495156 12.169419 0.000000
vt 1.090843 13.117449 0.000000
vt 1.882551 13.909157 0.000000
vt 2.830581 14.504844 0.000000
vt 3.887395 14.874640 0.000000
vt 37.004844 12.169419 0.000000
vt 36.409157 13.117449 0.000000
vt 35.617449 13.909157 0.000000
vt 34.669419 14.504844 0.000000
vt 33.612605 14.874640 0.000000
vt 1.090843 1.882551 0.000000
vt 1.882551 1.090843 0.000000
vt 2.830581 0.495156 0.000000
vt 3.887395 0.125360 0.000000
vt 0.000000 5.000000 0.000000
vt 10.000000 5.000000 0.000000
vt 0.000000 10.000000 0.000000
vt 10.000000 10.000000 0.000000
vt 2.500000 3.926991 0.000000
vt -7.500000 3.926991 0.000000
vt 2.500000 2.804993 0.000000
vt -7.500000 2.804993 0.000000
vt -7.500000 1.682996 0.000000
vt 2.500000 1.682996 0.000000
vt -7.500000 0.560999 0.000000
vt 2.500000 0.560999 0.000000
vt -7.500000 -0.560999 0.000000
vt 2.500000 -0.560999 0.000000
vt -7.500000 -1.682996 0.000000
vt 2.500000 -1.682996 0.000000
vt -7.500000 -2.804993 0.000000
vt 2.500000 -2.804993 0.000000
vt 2.500000 -3.926991 0.000000
vt -7.500000 -3.926991 0.000000
vt 2.500000 3.926991 0.000000
vt -7.500000 3.926991 0.000000
vt 2.500000 2.804993 0.000000
vt -7.500000 2.804993 0.000000
vt -7.500000 1.682996 0.000000
vt 2.500000 1.682996 0.000000
vt -7.500000 0.560999 0.000000
vt 2.500000 0.560999 0.000000
vt -7.500000 -0.560999 0.000000
vt 2.500000 -0.560999 0.000000
vt -7.500000 -1.682996 0.000000
vt 2.500000 -1.682996 0.000000
vt -7.500000 -2.804993 0.000000
vt 2.500000 -2.804993 0.000000
vt 2.500000 -3.926991 0.000000
vt -7.500000 -3.926991 0.000000
vt 0.000000 5.000000 0.000000
vt 10.000000 5.000000 0.000000
vt 0.000000 10.000000 0.000000
vt 10.000000 10.000000 0.000000
vt 2.500000 3.926991 0.000000
vt -7.500000 3.926991 0.000000
vt 2.500000 2.804993 0.000000
vt -7.500000 2.804993 0.000000
vt -7.500000 1.682996 0.000000
vt 2.500000 1.682996 0.000000
vt -7.500000 0.560999 0.000000
vt 2.500000 0.560999 0.000000
vt -7.500000 -0.560999 0.000000
vt 2.500000 -0.560999 0.000000
vt -7.500000 -1.682996 0.000000
vt 2.500000 -1.682996 0.000000
vt -7.500000 -2.804993 0.000000
vt 2.500000 -2.804993 0.000000
vt 2.500000 -3.926991 0.000000
vt -7.500000 -3.926991 0.000000
vt 13.750000 5.000000 0.000000
vt -13.750000 5.000000 0.000000
vt 13.750000 -5.000000 0.000000
vt -13.750000 -5.000000 0.000000
vt 0.125360 3.887395 0.000000
vt 5.000000 0.000000 0.000000
vt 0.000000 5.000000 0.000000
vt 32.500000 0.000000 0.000000
vt 37.500000 5.000000 0.000000
vt 37.374640 3.887395 0.000000
vt 37.004844 2.830581 0.000000
vt 36.409157 1.882551 0.000000
vt 35.617449 1.090843 0.000000
vt 34.669419 0.495156 0.000000
vt 33.612605 0.125360 0.000000
vt 0.495156 2.830581 0.000000
vt 1.090843 1.882551 0.000000
vt 1.882551 1.090843 0.000000
vt 2.830581 0.495156 0.000000
vt 3.887395 0.125360 0.000000
vt 0.000000 10.000000 0.000000
vt 37.500000 10.000000 0.000000
vt 5.000000 15.000000 0.000000
vt 32.500000 15.000000 0.000000
vt 37.374640 11.112605 0.000000
vt 37.004844 12.169419 0.000000
vt 36.409157 13.117449 0.000000
vt 35.617449 13.909157 0.000000
vt 34.669419 14.504844 0.000000
vt 33.612605 14.874640 0.000000
vt 3.887395 14.874640 0.000000
vt 2.830581 14.504844 0.000000
vt 1.882551 13.909157 0.000000
vt 1.090843 13.117449 0.000000
vt 0.495156 12.169419 0.000000
vt 0.125360 11.112605 0.000000
vt -5.000000 -13.750000 0.000000
vt 5.000000 -13.750000 0.000000
vt -5.000000 13.750000 0.000000
vt 5.000000 13.750000 0.000000
vn -0.100000 0.000000 0.000000
vn -0.100000 0.000000 0.000000
vn -0.097493 0.000000 -0.022252
vn -0.097493 0.000000 -0.022252
vn -0.090097 0.000000 -0.043388
vn -0.090097 0.000000 -0.043388
vn -0.078183 0.000000 -0.062349
vn -0.078183 0.000000 -0.062349
vn -0.062349 0.000000 -0.078183
vn -0.062349 0.000000 -0.078183
vn -0.043388 0.000000 -0.090097
vn -0.043388 0.000000 -0.090097
vn -0.022252 0.000000 -0.097493
vn -0.022252 0.000000 -0.097493
vn -0.000000 0.000000 -0.100000
vn -0.000000 0.000000 -0.100000
vn 0.000000 -0.100000 0.000000
vn 0.000000 -0.100000 0.000000
vn 0.000000 -0.100000 0.000000
vn 0.000000 -0.100000 0.000000
vn 0.000000 -0.100000 0.000000
vn 0.000000 -0.100000 0.000000
vn 0.000000 -0.100000 0.000000
vn 0.000000 -0.100000 0.000000
vn 0.000000 -0.100000 0.000000
vn 0.000000 -0.100000 0.000000
vn 0.000000 -0.100000 0.000000
vn 0.000000 -0.100000 0.000000
vn 0.000000 -0.100000 0.000000
vn 0.000000 -0.100000 0.000000
vn 0.000000 -0.100000 0.000000
vn 0.000000 -0.100000 0.000000
vn 0.000000 -0.100000 0.000000
vn 0.000000 -0.100000 0.000000
vn 0.000000 -0.100000 0.000000
vn 0.000000 -0.100000 0.000000
vn 0.000000 -0.100000 0.000000
vn 0.000000 -0.100000 0.000000
vn 0.000000 -0.100000 0.000000
vn 0.000000 -0.100000 0.000000
vn 0.000000 -0.100000 0.000000
vn 0.000000 -0.100000 0.000000
vn 0.000000 -0.100000 0.000000
vn 0.000000 -0.100000 0.000000
vn 0.000000 -0.100000 0.000000
vn 0.000000 -0.100000 0.000000
vn 0.000000 -0.100000 0.000000
vn 0.000000 -0.100000 0.000000
vn 0.000000 0.000000 -0.100000
vn 0.000000 0.000000 -0.100000
vn 0.022252 0.000000 -0.097493
vn 0.022252 0.000000 -0.097493
vn 0.043388 0.000000 -0.090097
vn 0.043388 0.000000 -0.090097
vn 0.062349 0.000000 -0.078183
vn 0.062349 0.000000 -0.078183
vn 0.078183 0.000000 -0.062349
vn 0.078183 0.000000 -0.062349
vn 0.090097 0.000000 -0.043388
vn 0.090097 0.000000 -0.043388
vn 0.097493 0.000000 -0.022252
vn 0.097493 0.000000 -0.022252
vn 0.100000 0.000000 0.000000
vn 0.100000 0.000000 0.000000
vn -0.100000 0.000000 0.000000
vn -0.100000 0.000000 0.000000
vn -0.097493 0.000000 0.022252
vn -0.097493 0.000000 0.022252
vn -0.090097 0.000000 0.043388
vn -0.090097 0.000000 0.043388
vn -0.078183 0.000000 0.062349
vn -0.078183 0.000000 0.062349
vn -0.062349 0.000000 0.078183
vn -0.062349 0.000000 0.078183
vn -0.043388 0.000000 0.090097
vn -0.043388 0.000000 0.090097
vn -0.022252 0.000000 0.097493
vn -0.022252 0.000000 0.097493
vn 0.000000 0.000000 0.100000
vn 0.000000 0.000000 0.100000
vn 0.000000 0.000000 0.100000
vn 0.000000 0.000000 0.100000
vn 0.022252 0.000000 0.097493
vn 0.022252 0.000000 0.097493
vn 0.043388 0.000000 0.090097
vn 0.043388 0.000000 0.090097
vn 0.062349 0.000000 0.078183
vn 0.062349 0.000000 0.078183
vn 0.078183 0.000000 0.062349
vn 0.078183 0.000000 0.062349
vn 0.090097 0.000000 0.043388
vn 0.090097 0.000000 0.043388
vn 0.097493 0.000000 0.022252
vn 0.097493 0.000000 0.022252
vn 0.100000 0.000000 0.000000
vn 0.100000 0.000000 0.000000
vn 0.000000 0.100000 0.000000
vn 0.000000 0.100000 0.000000
vn 0.000000 0.100000 0.000000
vn 0.000000 0.100000 0.000000
vn 0.000000 0.100000 0.000000
vn 0.000000 0.100000 0.000000
vn 0.000000 0.100000 0.000000
vn 0.000000 0.100000 0.000000
vn 0.000000 0.100000 0.000000
vn 0.000000 0.100000 0.000000
vn 0.000000 0.100000 0.000000
vn 0.000000 0.100000 0.000000
vn 0.000000 0.100000 0.000000
vn 0.000000 0.100000 0.000000
vn 0.000000 0.100000 0.000000
vn 0.000000 0.100000 0.000000
vn 0.000000 0.100000 0.000000
vn 0.000000 0.100000 0.000000
vn 0.000000 0.100000 0.000000
vn 0.000000 0.100000 0.000000
vn 0.000000 0.100000 0.000000
vn 0.000000 0.100000 0.000000
vn 0.000000 0.100000 0.000000
vn 0.000000 0.100000 0.000000
vn 0.000000 0.100000 0.000000
vn 0.000000 0.100000 0.000000
vn 0.000000 0.100000 0.000000
vn 0.000000 0.100000 0.000000
vn 0.000000 0.100000 0.000000
vn 0.000000 0.100000 0.000000
vn 0.000000 0.100000 0.000000
vn 0.000000 0.100000 0.000000
usemtl Steel_-_Satin
f 16/1/1 1/2/2 15/3/3
f 15/3/3 1/2/2 2/4/4
f 15/3/3 2/4/4 3/5/5
f 15/3/3 3/5/5 14/6/6
f 14/6/6 3/5/5 4/7/7
f 14/6/6 4/7/7 13/8/8
f 13/8/8 4/7/7 5/9/9
f 13/8/8 5/9/9 12/10/10
f 12/10/10 5/9/9 6/11/11
f 12/10/10 6/11/11 11/12/12
f 11/12/12 6/11/11 7/13/13
f 11/12/12 7/13/13 10/14/14
f 10/14/14 7/13/13 9/15/15
f 9/15/15 7/13/13 8/16/16
f 15/17/17 14/18/18 16/19/19
f 16/19/19 14/18/18 13/20/20
f 16/19/19 13/20/20 12/21/21
f 12/21/21 11/22/22 16/19/19
f 16/19/19 11/22/22 10/23/23
f 16/19/19 10/23/23 9/24/24
f 17/25/25 32/26/26 9/24/24
f 9/24/24 32/26/26 33/27/27
f 9/24/24 33/27/27 16/19/19
f 16/19/19 33/27/27 40/28/28
f 40/28/28 33/27/27 34/29/29
f 40/28/28 34/29/29 35/30/30
f 18/31/31 24/32/32 17/25/25
f 17/25/25 24/32/32 25/33/33
f 17/25/25 25/33/33 32/26/26
f 32/26/26 25/33/33 31/34/34
f 31/34/34 25/33/33 30/35/35
f 30/35/35 25/33/33 29/36/36
f 29/36/36 25/33/33 28/37/37
f 28/37/37 25/33/33 27/38/38
f 27/38/38 25/33/33 26/39/39
f 18/31/31 19/40/40 24/32/32
f 24/32/32 19/40/40 20/41/41
f 24/32/32 20/41/41 21/42/42
f 21/42/42 22/43/43 24/32/32
f 24/32/32 22/43/43 23/44/44
f 35/30/30 36/45/45 40/28/28
f 40/28/28 36/45/45 37/46/46
f 40/28/28 37/46/46 38/47/47
f 38/47/47 39/48/48 40/28/28
f 9/49/15 8/50/16 17/51/49
f 17/51/49 8/50/16 41/52/50
f 17/53/49 41/54/50 18/55/51
f 18/55/51 41/54/50 42/56/52
f 18/55/51 42/56/52 43/57/53
f 18/55/51 43/57/53 19/58/54
f 19/58/54 43/57/53 44/59/55
f 19/58/54 44/59/55 20/60/56
f 20/60/56 44/59/55 45/61/57
f 20/60/56 45/61/57 21/62/58
f 21/62/58 45/61/57 46/63/59
f 21/62/58 46/63/59 22/64/60
f 22/64/60 46/63/59 47/65/61
f 22/64/60 47/65/61 23/66/62
f 23/66/62 47/65/61 24/67/63
f 24/67/63 47/65/61 48/68/64
f 56/69/65 40/70/66 55/71/67
f 55/71/67 40/70/66 39/72/68
f 55/71/67 39/72/68 38/73/69
f 55/71/67 38/73/69 54/74/70
f 54/74/70 38/73/69 37/75/71
f 54/74/70 37/75/71 53/76/72
f 53/76/72 37/75/71 36/77/73
f 53/76/72 36/77/73 52/78/74
f 52/78/74 36/77/73 35/79/75
f 52/78/74 35/79/75 51/80/76
f 51/80/76 35/79/75 34/81/77
f 51/80/76 34/81/77 50/82/78
f 50/82/78 34/81/77 49/83/79
f 49/83/79 34/81/77 33/84/80
f 49/85/79 33/86/80 57/87/81
f 57/87/81 33/86/80 32/88/82
f 57/89/81 32/90/82 64/91/83
f 64/91/83 32/90/82 31/92/84
f 64/91/83 31/92/84 30/93/85
f 64/91/83 30/93/85 63/94/86
f 63/94/86 30/93/85 29/95/87
f 63/94/86 29/95/87 62/96/88
f 62/96/88 29/95/87 28/97/89
f 62/96/88 28/97/89 61/98/90
f 61/98/90 28/97/89 27/99/91
f 61/98/90 27/99/91 60/100/92
f 60/100/92 27/99/91 26/101/93
f 60/100/92 26/101/93 59/102/94
f 59/102/94 26/101/93 58/103/95
f 58/103/95 26/101/93 25/104/96
f 48/105/64 58/106/95 24/107/63
f 24/107/63 58/106/95 25/108/96
f 7/109/97 1/110/98 8/111/99
f 8/111/99 1/110/98 56/112/100
f 8/111/99 56/112/100 49/113/101
f 49/113/101 56/112/100 50/114/102
f 50/114/102 56/112/100 51/115/103
f 51/115/103 56/112/100 52/116/104
f 52/116/104 56/112/100 53/117/105
f 53/117/105 56/112/100 54/118/106
f 54/118/106 56/112/100 55/119/107
f 7/109/97 6/120/108 1/110/98
f 1/110/98 6/120/108 5/121/109
f 1/110/98 5/121/109 4/122/110
f 4/122/110 3/123/111 1/110/98
f 1/110/98 3/123/111 2/124/112
f 8/111/99 49/113/101 41/125/113
f 41/125/113 49/113/101 57/126/114
f 41/125/113 57/126/114 48/127/115
f 48/127/115 57/126/114 58/128/116
f 58/128/116 57/126/114 64/129/117
f 58/128/116 64/129/117 63/130/118
f 63/130/118 62/131/119 58/128/116
f 58/128/116 62/131/119 61/132/120
f 58/128/116 61/132/120 60/133/121
f 60/133/121 59/134/122 58/128/116
f 47/135/123 46/136/124 48/127/115
f 48/127/115 46/136/124 45/137/125
f 48/127/115 45/137/125 44/138/126
f 44/138/126 43/139/127 48/127/115
f 48/127/115 43/139/127 42/140/128
f 48/127/115 42/140/128 41/125/113
f 1/141/2 16/142/1 56/143/65
f 56/143/65 16/142/1 40/144/66
# 64 vertices
# 144 texture params
# 128 normals
# 124 facets

# 1 groups
