# WaveFront *.obj file (generated by Autodesk ATF)

mtllib 24587c73-e4f2-47bd-8ec7-08d2401de54a.mtl

g Body8

v 100.000000 -215.000000 475.000000
v 111.126047 -215.000000 476.253604
v 121.694187 -215.000000 479.951557
v 131.174490 -215.000000 485.908426
v 139.091574 -215.000000 493.825510
v 145.048443 -215.000000 503.305813
v 148.746396 -215.000000 513.873953
v 150.000000 -215.000000 525.000000
v 150.000000 -315.000000 525.000000
v 148.746396 -315.000000 513.873953
v 145.048443 -315.000000 503.305813
v 139.091574 -315.000000 493.825510
v 131.174490 -315.000000 485.908426
v 121.694187 -315.000000 479.951557
v 111.126047 -315.000000 476.253604
v 100.000000 -315.000000 475.000000
v 50.000000 -215.000000 475.000000
v 38.873953 -215.000000 476.253604
v 28.305813 -215.000000 479.951557
v 18.825510 -215.000000 485.908426
v 10.908426 -215.000000 493.825510
v 4.951557 -215.000000 503.305813
v 1.253604 -215.000000 513.873953
v 0.000000 -215.000000 525.000000
v 0.000000 -215.000000 800.000000
v 1.253604 -215.000000 811.126047
v 4.951557 -215.000000 821.694187
v 10.908426 -215.000000 831.174490
v 18.825510 -215.000000 839.091574
v 28.305813 -215.000000 845.048443
v 38.873953 -215.000000 848.746396
v 50.000000 -215.000000 850.000000
v 100.000000 -215.000000 850.000000
v 111.126047 -215.000000 848.746396
v 121.694187 -215.000000 845.048443
v 131.174490 -215.000000 839.091574
v 139.091574 -215.000000 831.174490
v 145.048443 -215.000000 821.694187
v 148.746396 -215.000000 811.126047
v 150.000000 -215.000000 800.000000
v 50.000000 -315.000000 475.000000
v 38.873953 -315.000000 476.253604
v 28.305813 -315.000000 479.951557
v 18.825510 -315.000000 485.908426
v 10.908426 -315.000000 493.825510
v 4.951557 -315.000000 503.305813
v 1.253604 -315.000000 513.873953
v 0.000000 -315.000000 525.000000
v 0.000000 -315.000000 800.000000
v 1.253604 -315.000000 811.126047
v 4.951557 -315.000000 821.694187
v 10.908426 -315.000000 831.174490
v 18.825510 -315.000000 839.091574
v 28.305813 -315.000000 845.048443
v 38.873953 -315.000000 848.746396
v 50.000000 -315.000000 850.000000
v 100.000000 -315.000000 850.000000
v 150.000000 -315.000000 800.000000
v 148.746396 -315.000000 811.126047
v 145.048443 -315.000000 821.694187
v 139.091574 -315.000000 831.174490
v 131.174490 -315.000000 839.091574
v 121.694187 -315.000000 845.048443
v 111.126047 -315.000000 848.746396
vt 2.500000 3.926991 0.000000
vt -7.500000 3.926991 0.000000
vt 2.500000 2.804993 0.000000
vt -7.500000 2.804993 0.000000
vt -7.500000 1.682996 0.000000
vt 2.500000 1.682996 0.000000
vt -7.500000 0.560999 0.000000
vt 2.500000 0.560999 0.000000
vt -7.500000 -0.560999 0.000000
vt 2.500000 -0.560999 0.000000
vt -7.500000 -1.682996 0.000000
vt 2.500000 -1.682996 0.000000
vt -7.500000 -2.804993 0.000000
vt 2.500000 -2.804993 0.000000
vt 2.500000 -3.926991 0.000000
vt -7.500000 -3.926991 0.000000
vt 3.887395 14.874640 0.000000
vt 2.830581 14.504844 0.000000
vt 5.000000 15.000000 0.000000
vt 1.882551 13.909157 0.000000
vt 1.090843 13.117449 0.000000
vt 0.495156 12.169419 0.000000
vt 0.125360 11.112605 0.000000
vt 0.000000 10.000000 0.000000
vt 0.000000 5.000000 0.000000
vt 37.500000 5.000000 0.000000
vt 37.500000 10.000000 0.000000
vt 32.500000 15.000000 0.000000
vt 37.374640 11.112605 0.000000
vt 37.004844 12.169419 0.000000
vt 0.125360 3.887395 0.000000
vt 5.000000 0.000000 0.000000
vt 32.500000 0.000000 0.000000
vt 37.374640 3.887395 0.000000
vt 37.004844 2.830581 0.000000
vt 36.409157 1.882551 0.000000
vt 35.617449 1.090843 0.000000
vt 34.669419 0.495156 0.000000
vt 33.612605 0.125360 0.000000
vt 0.495156 2.830581 0.000000
vt 1.090843 1.882551 0.000000
vt 1.882551 1.090843 0.000000
vt 2.830581 0.495156 0.000000
vt 3.887395 0.125360 0.000000
vt 36.409157 13.117449 0.000000
vt 35.617449 13.909157 0.000000
vt 34.669419 14.504844 0.000000
vt 33.612605 14.874640 0.000000
vt 10.000000 10.000000 0.000000
vt 0.000000 10.000000 0.000000
vt 10.000000 5.000000 0.000000
vt 0.000000 5.000000 0.000000
vt 2.500000 3.926991 0.000000
vt -7.500000 3.926991 0.000000
vt 2.500000 2.804993 0.000000
vt -7.500000 2.804993 0.000000
vt -7.500000 1.682996 0.000000
vt 2.500000 1.682996 0.000000
vt -7.500000 0.560999 0.000000
vt 2.500000 0.560999 0.000000
vt -7.500000 -0.560999 0.000000
vt 2.500000 -0.560999 0.000000
vt -7.500000 -1.682996 0.000000
vt 2.500000 -1.682996 0.000000
vt -7.500000 -2.804993 0.000000
vt 2.500000 -2.804993 0.000000
vt 2.500000 -3.926991 0.000000
vt -7.500000 -3.926991 0.000000
vt 2.500000 3.926991 0.000000
vt -7.500000 3.926991 0.000000
vt 2.500000 2.804993 0.000000
vt -7.500000 2.804993 0.000000
vt -7.500000 1.682996 0.000000
vt 2.500000 1.682996 0.000000
vt -7.500000 0.560999 0.000000
vt 2.500000 0.560999 0.000000
vt -7.500000 -0.560999 0.000000
vt 2.500000 -0.560999 0.000000
vt -7.500000 -1.682996 0.000000
vt 2.500000 -1.682996 0.000000
vt -7.500000 -2.804993 0.000000
vt 2.500000 -2.804993 0.000000
vt 2.500000 -3.926991 0.000000
vt -7.500000 -3.926991 0.000000
vt 0.000000 5.000000 0.000000
vt 10.000000 5.000000 0.000000
vt 0.000000 10.000000 0.000000
vt 10.000000 10.000000 0.000000
vt 37.374640 11.112605 0.000000
vt 32.500000 15.000000 0.000000
vt 37.500000 10.000000 0.000000
vt 5.000000 15.000000 0.000000
vt 0.000000 10.000000 0.000000
vt 0.125360 11.112605 0.000000
vt 0.495156 12.169419 0.000000
vt 1.090843 13.117449 0.000000
vt 1.882551 13.909157 0.000000
vt 2.830581 14.504844 0.000000
vt 3.887395 14.874640 0.000000
vt 37.004844 12.169419 0.000000
vt 36.409157 13.117449 0.000000
vt 35.617449 13.909157 0.000000
vt 34.669419 14.504844 0.000000
vt 33.612605 14.874640 0.000000
vt 37.500000 5.000000 0.000000
vt 0.000000 5.000000 0.000000
vt 32.500000 0.000000 0.000000
vt 5.000000 0.000000 0.000000
vt 0.125360 3.887395 0.000000
vt 0.495156 2.830581 0.000000
vt 1.090843 1.882551 0.000000
vt 1.882551 1.090843 0.000000
vt 2.830581 0.495156 0.000000
vt 3.887395 0.125360 0.000000
vt 33.612605 0.125360 0.000000
vt 34.669419 0.495156 0.000000
vt 35.617449 1.090843 0.000000
vt 36.409157 1.882551 0.000000
vt 37.004844 2.830581 0.000000
vt 37.374640 3.887395 0.000000
vt 2.500000 3.926991 0.000000
vt -7.500000 3.926991 0.000000
vt 2.500000 2.804993 0.000000
vt -7.500000 2.804993 0.000000
vt -7.500000 1.682996 0.000000
vt 2.500000 1.682996 0.000000
vt -7.500000 0.560999 0.000000
vt 2.500000 0.560999 0.000000
vt -7.500000 -0.560999 0.000000
vt 2.500000 -0.560999 0.000000
vt -7.500000 -1.682996 0.000000
vt 2.500000 -1.682996 0.000000
vt -7.500000 -2.804993 0.000000
vt 2.500000 -2.804993 0.000000
vt 2.500000 -3.926991 0.000000
vt -7.500000 -3.926991 0.000000
vt 13.750000 5.000000 0.000000
vt -13.750000 5.000000 0.000000
vt 13.750000 -5.000000 0.000000
vt -13.750000 -5.000000 0.000000
vt -5.000000 -13.750000 0.000000
vt 5.000000 -13.750000 0.000000
vt -5.000000 13.750000 0.000000
vt 5.000000 13.750000 0.000000
vn -0.000000 0.000000 -0.100000
vn -0.000000 0.000000 -0.100000
vn 0.022252 0.000000 -0.097493
vn 0.022252 0.000000 -0.097493
vn 0.043388 0.000000 -0.090097
vn 0.043388 0.000000 -0.090097
vn 0.062349 0.000000 -0.078183
vn 0.062349 0.000000 -0.078183
vn 0.078183 0.000000 -0.062349
vn 0.078183 0.000000 -0.062349
vn 0.090097 0.000000 -0.043388
vn 0.090097 0.000000 -0.043388
vn 0.097493 0.000000 -0.022252
vn 0.097493 0.000000 -0.022252
vn 0.100000 0.000000 0.000000
vn 0.100000 0.000000 0.000000
vn 0.000000 0.100000 0.000000
vn 0.000000 0.100000 0.000000
vn 0.000000 0.100000 0.000000
vn 0.000000 0.100000 0.000000
vn 0.000000 0.100000 0.000000
vn 0.000000 0.100000 0.000000
vn 0.000000 0.100000 0.000000
vn 0.000000 0.100000 0.000000
vn 0.000000 0.100000 0.000000
vn 0.000000 0.100000 0.000000
vn 0.000000 0.100000 0.000000
vn 0.000000 0.100000 0.000000
vn 0.000000 0.100000 0.000000
vn 0.000000 0.100000 0.000000
vn 0.000000 0.100000 0.000000
vn 0.000000 0.100000 0.000000
vn 0.000000 0.100000 0.000000
vn 0.000000 0.100000 0.000000
vn 0.000000 0.100000 0.000000
vn 0.000000 0.100000 0.000000
vn 0.000000 0.100000 0.000000
vn 0.000000 0.100000 0.000000
vn 0.000000 0.100000 0.000000
vn 0.000000 0.100000 0.000000
vn 0.000000 0.100000 0.000000
vn 0.000000 0.100000 0.000000
vn 0.000000 0.100000 0.000000
vn 0.000000 0.100000 0.000000
vn 0.000000 0.100000 0.000000
vn 0.000000 0.100000 0.000000
vn 0.000000 0.100000 0.000000
vn 0.000000 0.100000 0.000000
vn 0.000000 0.000000 -0.100000
vn 0.000000 0.000000 -0.100000
vn -0.100000 0.000000 0.000000
vn -0.100000 0.000000 0.000000
vn -0.097493 0.000000 -0.022252
vn -0.097493 0.000000 -0.022252
vn -0.090097 0.000000 -0.043388
vn -0.090097 0.000000 -0.043388
vn -0.078183 0.000000 -0.062349
vn -0.078183 0.000000 -0.062349
vn -0.062349 0.000000 -0.078183
vn -0.062349 0.000000 -0.078183
vn -0.043388 0.000000 -0.090097
vn -0.043388 0.000000 -0.090097
vn -0.022252 0.000000 -0.097493
vn -0.022252 0.000000 -0.097493
vn -0.100000 0.000000 0.000000
vn -0.100000 0.000000 0.000000
vn -0.097493 0.000000 0.022252
vn -0.097493 0.000000 0.022252
vn -0.090097 0.000000 0.043388
vn -0.090097 0.000000 0.043388
vn -0.078183 0.000000 0.062349
vn -0.078183 0.000000 0.062349
vn -0.062349 0.000000 0.078183
vn -0.062349 0.000000 0.078183
vn -0.043388 0.000000 0.090097
vn -0.043388 0.000000 0.090097
vn -0.022252 0.000000 0.097493
vn -0.022252 0.000000 0.097493
vn 0.000000 0.000000 0.100000
vn 0.000000 0.000000 0.100000
vn 0.000000 0.000000 0.100000
vn 0.000000 0.000000 0.100000
vn 0.000000 -0.100000 0.000000
vn 0.000000 -0.100000 0.000000
vn 0.000000 -0.100000 0.000000
vn 0.000000 -0.100000 0.000000
vn 0.000000 -0.100000 0.000000
vn 0.000000 -0.100000 0.000000
vn 0.000000 -0.100000 0.000000
vn 0.000000 -0.100000 0.000000
vn 0.000000 -0.100000 0.000000
vn 0.000000 -0.100000 0.000000
vn 0.000000 -0.100000 0.000000
vn 0.000000 -0.100000 0.000000
vn 0.000000 -0.100000 0.000000
vn 0.000000 -0.100000 0.000000
vn 0.000000 -0.100000 0.000000
vn 0.000000 -0.100000 0.000000
vn 0.000000 -0.100000 0.000000
vn 0.000000 -0.100000 0.000000
vn 0.000000 -0.100000 0.000000
vn 0.000000 -0.100000 0.000000
vn 0.000000 -0.100000 0.000000
vn 0.000000 -0.100000 0.000000
vn 0.000000 -0.100000 0.000000
vn 0.000000 -0.100000 0.000000
vn 0.000000 -0.100000 0.000000
vn 0.000000 -0.100000 0.000000
vn 0.000000 -0.100000 0.000000
vn 0.000000 -0.100000 0.000000
vn 0.000000 -0.100000 0.000000
vn 0.000000 -0.100000 0.000000
vn 0.000000 -0.100000 0.000000
vn 0.000000 -0.100000 0.000000
vn 0.022252 0.000000 0.097493
vn 0.022252 0.000000 0.097493
vn 0.043388 0.000000 0.090097
vn 0.043388 0.000000 0.090097
vn 0.062349 0.000000 0.078183
vn 0.062349 0.000000 0.078183
vn 0.078183 0.000000 0.062349
vn 0.078183 0.000000 0.062349
vn 0.090097 0.000000 0.043388
vn 0.090097 0.000000 0.043388
vn 0.097493 0.000000 0.022252
vn 0.097493 0.000000 0.022252
vn 0.100000 0.000000 0.000000
vn 0.100000 0.000000 0.000000
usemtl Steel_-_Satin
f 16/1/1 1/2/2 15/3/3
f 15/3/3 1/2/2 2/4/4
f 15/3/3 2/4/4 3/5/5
f 15/3/3 3/5/5 14/6/6
f 14/6/6 3/5/5 4/7/7
f 14/6/6 4/7/7 13/8/8
f 13/8/8 4/7/7 5/9/9
f 13/8/8 5/9/9 12/10/10
f 12/10/10 5/9/9 6/11/11
f 12/10/10 6/11/11 11/12/12
f 11/12/12 6/11/11 7/13/13
f 11/12/12 7/13/13 10/14/14
f 10/14/14 7/13/13 9/15/15
f 9/15/15 7/13/13 8/16/16
f 7/17/17 6/18/18 8/19/19
f 8/19/19 6/18/18 5/20/20
f 8/19/19 5/20/20 4/21/21
f 4/21/21 3/22/22 8/19/19
f 8/19/19 3/22/22 2/23/23
f 8/19/19 2/23/23 1/24/24
f 17/25/25 32/26/26 1/24/24
f 1/24/24 32/26/26 33/27/27
f 1/24/24 33/27/27 8/19/19
f 8/19/19 33/27/27 40/28/28
f 40/28/28 33/27/27 34/29/29
f 40/28/28 34/29/29 35/30/30
f 18/31/31 24/32/32 17/25/25
f 17/25/25 24/32/32 25/33/33
f 17/25/25 25/33/33 32/26/26
f 32/26/26 25/33/33 31/34/34
f 31/34/34 25/33/33 30/35/35
f 30/35/35 25/33/33 29/36/36
f 29/36/36 25/33/33 28/37/37
f 28/37/37 25/33/33 27/38/38
f 27/38/38 25/33/33 26/39/39
f 18/31/31 19/40/40 24/32/32
f 24/32/32 19/40/40 20/41/41
f 24/32/32 20/41/41 21/42/42
f 21/42/42 22/43/43 24/32/32
f 24/32/32 22/43/43 23/44/44
f 35/30/30 36/45/45 40/28/28
f 40/28/28 36/45/45 37/46/46
f 40/28/28 37/46/46 38/47/47
f 38/47/47 39/48/48 40/28/28
f 1/49/2 16/50/1 17/51/49
f 17/51/49 16/50/1 41/52/50
f 48/53/51 24/54/52 47/55/53
f 47/55/53 24/54/52 23/56/54
f 47/55/53 23/56/54 22/57/55
f 47/55/53 22/57/55 46/58/56
f 46/58/56 22/57/55 21/59/57
f 46/58/56 21/59/57 45/60/58
f 45/60/58 21/59/57 20/61/59
f 45/60/58 20/61/59 44/62/60
f 44/62/60 20/61/59 19/63/61
f 44/62/60 19/63/61 43/64/62
f 43/64/62 19/63/61 18/65/63
f 43/64/62 18/65/63 42/66/64
f 42/66/64 18/65/63 41/67/50
f 41/67/50 18/65/63 17/68/49
f 25/69/65 49/70/66 26/71/67
f 26/71/67 49/70/66 50/72/68
f 26/71/67 50/72/68 51/73/69
f 26/71/67 51/73/69 27/74/70
f 27/74/70 51/73/69 52/75/71
f 27/74/70 52/75/71 28/76/72
f 28/76/72 52/75/71 53/77/73
f 28/76/72 53/77/73 29/78/74
f 29/78/74 53/77/73 54/79/75
f 29/78/74 54/79/75 30/80/76
f 30/80/76 54/79/75 55/81/77
f 30/80/76 55/81/77 31/82/78
f 31/82/78 55/81/77 32/83/79
f 32/83/79 55/81/77 56/84/80
f 32/85/79 56/86/80 33/87/81
f 33/87/81 56/86/80 57/88/82
f 15/89/83 9/90/84 16/91/85
f 16/91/85 9/90/84 58/92/86
f 16/91/85 58/92/86 57/93/87
f 57/93/87 58/92/86 64/94/88
f 64/94/88 58/92/86 63/95/89
f 63/95/89 58/92/86 62/96/90
f 62/96/90 58/92/86 61/97/91
f 61/97/91 58/92/86 60/98/92
f 60/98/92 58/92/86 59/99/93
f 15/89/83 14/100/94 9/90/84
f 9/90/84 14/100/94 13/101/95
f 9/90/84 13/101/95 12/102/96
f 12/102/96 11/103/97 9/90/84
f 9/90/84 11/103/97 10/104/98
f 16/91/85 57/93/87 41/105/99
f 41/105/99 57/93/87 56/106/100
f 41/105/99 56/106/100 48/107/101
f 48/107/101 56/106/100 49/108/102
f 49/108/102 56/106/100 55/109/103
f 49/108/102 55/109/103 54/110/104
f 54/110/104 53/111/105 49/108/102
f 49/108/102 53/111/105 52/112/106
f 49/108/102 52/112/106 51/113/107
f 51/113/107 50/114/108 49/108/102
f 47/115/109 46/116/110 48/107/101
f 48/107/101 46/116/110 45/117/111
f 48/107/101 45/117/111 44/118/112
f 44/118/112 43/119/113 48/107/101
f 48/107/101 43/119/113 42/120/114
f 48/107/101 42/120/114 41/105/99
f 33/121/81 57/122/82 34/123/115
f 34/123/115 57/122/82 64/124/116
f 34/123/115 64/124/116 63/125/117
f 34/123/115 63/125/117 35/126/118
f 35/126/118 63/125/117 62/127/119
f 35/126/118 62/127/119 36/128/120
f 36/128/120 62/127/119 61/129/121
f 36/128/120 61/129/121 37/130/122
f 37/130/122 61/129/121 60/131/123
f 37/130/122 60/131/123 38/132/124
f 38/132/124 60/131/123 59/133/125
f 38/132/124 59/133/125 39/134/126
f 39/134/126 59/133/125 40/135/127
f 40/135/127 59/133/125 58/136/128
f 8/137/16 40/138/127 9/139/15
f 9/139/15 40/138/127 58/140/128
f 24/141/52 48/142/51 25/143/65
f 25/143/65 48/142/51 49/144/66
# 64 vertices
# 144 texture params
# 128 normals
# 124 facets

# 1 groups
